v -0.01272037346 -0.03524208441 -0.02648931555
vn -0.5535795689 -0.8028942943 -0.2211569846
v -0.01259213872 -0.03724208102 -0.001593849622
vn -0.3759413362 -0.9062256217 0.1934507787
v -0.01272072271 -0.03524208441 -0.001510976115
vn -0.3818652928 -0.7568569779 0.5304210186
v -0.01259143651 -0.03724208102 -0.0264068637
vn -0.1701995879 -0.9245563745 -0.3409217596
v 0.01272019092 -0.03524228185 -0.02648902126
vn 0.406807214 -0.8379609585 -0.3637709022
v 0.01259157434 -0.03724227473 -0.02640615031
vn 0.3759265542 -0.9062319398 -0.1934500784
v 0.01271984354 -0.03524228185 -0.001510684495
vn 0.6123377085 -0.7153023481 0.3367270231
v 0.01259087492 -0.03724227473 -0.001593137742
vn 0.1701845825 -0.924559176 0.3409216404
v -0.01802968606 -0.03282908723 -0.0009999994654
vn -0.4875665605 -0.8724632263 0.03296602145
v -0.01802968606 -0.03282908723 -0.0270000007
vn -0.4864196181 -0.8726684451 -0.04296200722
v -0.003169579897 0.03736257181 -0.0270000007
vn -0.0417939648 0.9978467226 -0.05054917186
v -0.006321379915 0.03682065383 -0.0009999994654
vn -0.1697009355 0.9847660065 0.03791376948
v 0.003170149866 0.03736251965 -0.0009999994654
vn 0.04180881381 0.997846067 0.05054929107
v -0.009473179467 0.03627873585 -0.0270000007
vn -0.264265269 0.9642171264 -0.02119409293
v -0.01548273582 0.03414579108 -0.0009999994654
vn -0.3558754921 0.9333472848 0.04706944525
v -0.01548273582 0.03414579108 -0.0270000007
vn -0.4351382256 0.8978759646 -0.06688373536
v -0.0210434515 0.031025609 -0.0009999994654
vn -0.5379706025 0.8415694833 0.04846111313
v -0.0210434515 0.031025609 -0.0270000007
vn -0.5841646791 0.8110376 -0.03113922849
v -0.02599459514 0.02700859495 -0.0009999994654
vn -0.6732380986 0.7387762666 0.0309856236
v -0.02599459514 0.02700859495 -0.0270000007
vn -0.7105697989 0.7019652128 -0.04832598194
v -0.03019308113 0.02221108414 -0.0009999994654
vn -0.786555469 0.6139352322 0.06643845886
v -0.03019308113 0.02221108414 -0.0270000007
vn -0.8204288483 0.5697159767 -0.04816898704
v -0.03351759911 0.01677194424 -0.0009999994654
vn -0.8813406229 0.4714838862 0.03068559803
v -0.03351759911 0.01677194424 -0.0270000007
vn -0.9061204195 0.4219053388 -0.03068641387
v -0.03587216139 0.01084859483 -0.0009999994654
vn -0.9472344518 0.3169448972 0.04788380116
v -0.03587216139 0.01084859483 -0.0270000007
vn -0.9621853828 0.2642376721 -0.06616429985
v -0.03718882799 0.004612423945 -0.0009999994654
vn -0.987562716 0.1498032212 0.04773776233
v -0.03718882799 0.004612423945 -0.0270000007
vn -0.9950107336 0.09502573311 -0.03039370105
v -0.03742969036 -0.001756164944 -0.0009999994654
vn -0.9993503094 -0.01959266514 0.03024942987
v -0.03742969036 -0.001756164944 -0.0270000007
vn -0.9951996207 -0.07236301899 -0.06588902324
v -0.03658794984 -0.008072970435 -0.0009999994654
vn -0.9801158905 -0.187217325 0.06574609131
v -0.03658794984 -0.008072970435 -0.0270000007
vn -0.9696153998 -0.2427744418 -0.03010861576
v -0.03468812257 -0.01415531058 -0.0009999994654
vn -0.9327851534 -0.3544229269 0.0655458495
v -0.03468812257 -0.01415531058 -0.0270000007
vn -0.9138734341 -0.4006610513 -0.06562068313
v -0.03178532049 -0.01982732862 -0.0009999994654
vn -0.8621559739 -0.5056487322 0.03172373399
v -0.03178532049 -0.01982732862 -0.0270000007
vn -0.8328504562 -0.5526936054 -0.02983078733
v -0.02796364576 -0.02492504008 -0.0009999994654
vn -0.7608188987 -0.6456720829 0.06528520584
v -0.02796364576 -0.02492504008 -0.0270000007
vn -0.7286013961 -0.683318615 -0.04707092047
v -0.02333375998 -0.02930111252 -0.0009999994654
vn -0.643753171 -0.7645734549 0.03176954761
v -0.02333375998 -0.02930111252 -0.0270000007
vn -0.6006305218 -0.7981481552 -0.0469310917
v 0.006321940105 0.03682056069 -0.0270000007
vn 0.1697155684 0.9847635031 -0.03791376576
v 0.009473729879 0.03627859801 -0.0009999994654
vn 0.2642796338 0.9642131925 0.02119415998
v 0.01548324991 0.03414556012 -0.0270000007
vn 0.3562984169 0.9322596192 -0.06279724836
v 0.01548324991 0.03414556012 -0.0009999994654
vn 0.4351522028 0.8978692293 0.06688389927
v 0.02104392461 0.03102528863 -0.0270000007
vn 0.5383220315 0.8421637416 -0.03113836609
v 0.02104392461 0.03102528863 -0.0009999994654
vn 0.5841767192 0.8110288978 0.03113924898
v 0.02599500306 0.02700820565 -0.0270000007
vn 0.6713111997 0.7395989299 -0.0483183302
v 0.02599500306 0.02700820565 -0.0009999994654
vn 0.7105807066 0.701954186 0.04832615331
v 0.0301934164 0.02221062593 -0.0270000007
vn 0.7882102728 0.6135181785 -0.04816658795
v 0.0301934164 0.02221062593 -0.0009999994654
vn 0.8204374313 0.5697035789 0.04816899449
v 0.03351785243 0.01677143946 -0.0270000007
vn 0.8813476563 0.4714707732 -0.03068558872
v 0.03351785243 0.01677143946 -0.0009999994654
vn 0.9061267376 0.4218917489 0.03068640456
v 0.0358723253 0.01084805466 -0.0270000007
vn 0.9464811087 0.3159064651 -0.0661560148
v 0.0358723253 0.01084805466 -0.0009999994654
vn 0.9621893764 0.2642232478 0.0661643818
v 0.03718889877 0.00461186422 -0.0270000007
vn 0.9882158041 0.1500192136 -0.03039298207
v 0.03718889877 0.00461186422 -0.0009999994654
vn 0.9950121641 0.09501067549 0.03039377369
v 0.03742966428 -0.001756730024 -0.0270000007
vn 0.998709619 -0.01769189164 -0.04760342464
v 0.03742966428 -0.001756730024 -0.0009999994654
vn 0.9951984286 -0.07237862796 0.06588917226
v 0.03658782318 -0.008073519915 -0.0270000007
vn 0.9808859229 -0.1887066364 -0.0474611111
v 0.03658782318 -0.008073519915 -0.0009999994654
vn 0.969611764 -0.2427889407 0.0301085785
v 0.0346879065 -0.01415583957 -0.0270000007
vn 0.932780087 -0.3544362485 -0.06554581225
v 0.0346879065 -0.01415583957 -0.0009999994654
vn 0.913867712 -0.4006740451 0.06562074274
v 0.03178502619 -0.01982781105 -0.0270000007
vn 0.8621485233 -0.5056614876 -0.03172390908
v 0.03178502619 -0.01982781105 -0.0009999994654
vn 0.8328419924 -0.5527063608 0.02983096428
v 0.0279632695 -0.02492546476 -0.0270000007
vn 0.7608090043 -0.6456837654 -0.06528535485
v 0.0279632695 -0.02492546476 -0.0009999994654
vn 0.7285911441 -0.6833295822 0.04707095772
v 0.02333332039 -0.02930146642 -0.0270000007
vn 0.6437416673 -0.7645831108 -0.03176960349
v 0.02333332039 -0.02930146642 -0.0009999994654
vn 0.6006183624 -0.7981572747 0.04693108052
v 0.01802918874 -0.0328293629 -0.0270000007
vn 0.5081296563 -0.8602347374 -0.0424313657
v 0.01802918874 -0.0328293629 -0.0009999994654
vn 0.4644625187 -0.8850924969 0.02976222523
v -0.01263841987 -0.03424207866 -0.02800000086
vn -0.03179451451 -0.5006691217 -0.865054667
v 0.01263790019 -0.03424227983 -0.02800000086
vn 0.002492324682 -0.01952954754 -0.9998061657
v 0.01263790019 -0.03424227983 -3.570974627e-10
vn 0.03178669512 -0.5006683469 0.8650553823
v -0.01263841987 -0.03424207866 -3.570974627e-10
vn -0.002492622705 -0.01952946186 0.9998061657
v -0.01969197392 -0.03057331219 -3.570974627e-10
vn -0.005692860112 -0.007446262054 0.9999560714
v -0.02881795168 -0.02218168601 -3.570974627e-10
vn -0.02637241967 -0.01892938279 0.9994729757
v -0.03459466621 -0.01121206488 -3.570974627e-10
vn -0.03532796726 -0.01136365719 0.9993111491
v -0.03635074571 0.001060634968 -3.570974627e-10
vn -0.06609112024 -0.001975981053 0.9978116155
v -0.03501624987 0.01030107029 -3.570974627e-10
vn -0.09155458212 0.02495522238 0.9954873323
v -0.03113448992 0.0187921524 -3.570974627e-10
vn -0.182666868 0.1105416045 0.9769408107
v -0.02301251702 0.02815893106 -3.570974627e-10
vn -0.2672197819 0.2890868783 0.9192509651
v -0.01515684929 0.03320422024 -3.570974627e-10
vn -0.004777951166 0.009902920574 0.9999395609
v -0.006198579911 0.03583404794 -3.570974627e-10
vn -0.004087512847 0.02797190659 0.9996003509
v 0.006199120078 0.03583395481 -3.570974627e-10
vn 0.004192104563 0.02066461183 0.9997776747
v 0.01787635125 0.03166918829 -3.570974627e-10
vn 0.004214397632 0.007466376759 0.9999632239
v 0.02543054149 0.02618277073 -3.570974627e-10
vn 0.02067703754 0.02042171732 0.9995776415
v 0.03113477491 0.01879168116 -3.570974627e-10
vn 0.03943239897 0.02067149803 0.9990084171
v 0.03563807532 0.00724078482 -3.570974627e-10
vn 0.04940607771 0.008681364357 0.9987410307
v 0.03599946946 -0.00515164528 -3.570974627e-10
vn 0.3289662004 -0.05577483028 0.9426931739
v 0.03217696026 -0.01694534533 -3.570974627e-10
vn 0.1522559375 -0.07951678336 0.9851371646
v 0.02691313997 -0.0246562995 -3.570974627e-10
vn 0.05844293162 -0.05555760488 0.9967435598
v 0.01969151013 -0.03057361394 -3.570974627e-10
vn 0.004635445308 -0.007885897532 0.9999581575
v 0.01969151013 -0.03057361394 -0.02800000086
vn 0.005499818828 -0.007193985395 -0.999958992
v 0.02881761454 -0.02218212001 -0.02800000086
vn 0.0282374844 -0.02026872151 -0.9993957281
v 0.03459449857 -0.01121259015 -0.02800000086
vn 0.03740623966 -0.01359584089 -0.9992076755
v 0.03644176945 -0.00206085993 -0.02800000086
vn 0.0609478429 -0.004639135208 -0.9981301427
v 0.03563807532 0.00724078482 -0.02800000086
vn 0.1167324632 0.02394963056 -0.9928745627
v 0.03113477491 0.01879168116 -0.02800000086
vn 0.1779825985 0.09330315143 -0.9796003103
v 0.02543054149 0.02618277073 -0.02800000086
vn 0.3038987815 0.3001462519 -0.9041889906
v 0.01787635125 0.03166918829 -0.02800000086
vn 0.007377924863 0.01307099499 -0.9998873472
v 0.006199120078 0.03583395481 -0.02800000086
vn 0.004614101723 0.02670735121 -0.9996326566
v -0.006198579911 0.03583404794 -0.02800000086
vn -0.004191800486 0.02066470124 -0.9997776747
v -0.01787587069 0.03166946024 -0.02800000086
vn -0.004214287736 0.007466447074 -0.9999632239
v -0.02543013915 0.02618316188 -0.02800000086
vn -0.02067674696 0.02042205632 -0.9995776415
v -0.03113448992 0.0187921524 -0.02800000086
vn -0.0394321233 0.02067211643 -0.9990084171
v -0.03563796729 0.007241325919 -0.02800000086
vn -0.04940599576 0.008682127111 -0.9987410307
v -0.03599955142 -0.005151099991 -0.02800000086
vn -0.3289672732 -0.0557698831 -0.9426931143
v -0.0321772173 -0.01694486104 -0.02800000086
vn -0.1522571743 -0.07951455563 -0.9851371646
v -0.02691350691 -0.02465588972 -0.02800000086
vn -0.05844381452 -0.05555679277 -0.9967435598
v -0.01969197392 -0.03057331219 -0.02800000086
vn -0.004635565914 -0.007885834202 -0.9999581575
v -0.01010259427 -0.03730909526 -0.01383675542
vn -0.3740896285 -0.9253168702 -0.06201288849
v -0.005192810204 -0.03730912879 -0.02266723476
vn -0.06071610376 -0.9844736457 -0.1646973342
v 0.01010202989 -0.03730924055 -0.01416324545
vn 0.06279290468 -0.9980261922 -0.0008910326869
v 0.005192250013 -0.0373092033 -0.005332765169
vn 0.2618111372 -0.7191497684 0.6436447501
v -0.004910060205 -0.03730913624 -0.005169520155
vn -0.2551382184 -0.9165554643 0.3079457879
v 0.004909500014 -0.0373092033 -0.02283047885
vn 0.05972597003 -0.9949660897 -0.0804688707
v -0.005593085662 -0.03792743385 -0.02333534695
vn -0.3629722893 0.2123054415 -0.9072912931
v 0.005287965294 -0.0379275158 -0.02351117693
vn 0.5604583621 0.2766901553 -0.780595243
v -0.005637910683 -0.04024213925 -0.02341013961
vn -0.5613847375 -0.5973706841 -0.5727087855
v 0.01088076271 -0.03792755678 -0.01417583041
vn 0.9343544245 0.3313857913 0.1310164332
v 0.005330310203 -0.04024222121 -0.0235873796
vn 0.2323626131 -0.6698502898 -0.7052007914
v -0.0005264699575 -0.051612176 -0.02043209039
vn -0.01043498237 -0.8935226798 -0.4488967657
v 0.00417579012 -0.05161220953 -0.01892016456
vn 0.6590679884 -0.2204913348 -0.7190361023
v -0.005330920219 -0.04024213925 -0.004412619863
vn -0.2736704648 -0.5250228643 0.8058879972
v -0.01096852962 -0.04024209827 -0.01382276043
vn -0.8977049589 -0.402839154 0.1784555614
v 0.0109679196 -0.04024225846 -0.01417724043
vn 0.7357803583 -0.6596612334 -0.1532132626
v 0.006431700196 -0.05161222816 -0.01452607475
vn 0.8578085899 -0.5091580749 -0.07016018033
v -0.0003542100021 -0.04424218088 -0.00621797936
vn -0.0432889536 -0.3032531142 0.951926291
v 0.005637299735 -0.04024222121 -0.004589859862
vn 0.5427057147 -0.5022311807 0.6732268333
v 0.005740819965 -0.04424222186 -0.01694748364
vn 0.9108834267 -0.1320589483 -0.3909627497
v -0.007388405036 -0.04024212807 -0.01647001505
vn -0.6655099392 -0.7330259085 -0.1406043172
v -0.003141470021 -0.04024215415 -0.006871314719
vn -0.3353299797 -0.4247128367 0.8409356475
v 0.003861250123 -0.04424221069 -0.007079469971
vn 0.4419817626 -0.2962955832 0.8466764688
v -0.003796169767 -0.04424214736 -0.0208026953
vn -0.4937240183 -0.3085274696 -0.8130482435
v 0.003197159851 -0.04424219951 -0.01975085959
vn 0.2470207661 -0.08565278351 -0.9652172327
v 0.007014532108 -0.04024223611 -0.01051626727
vn 0.6472882032 -0.6752863526 0.3535622358
v 0.007915959693 -0.04024223983 -0.01437199954
vn 0.8828596473 -0.443570435 -0.1542859226
v 0.001777454978 -0.04424219206 -0.0215844959
vn 0.2728788555 -0.454022795 -0.8481747508
v 0.006423110142 -0.04424223304 -0.0184073206
vn 0.7593231201 -0.3975156248 -0.5151793361
v -0.004474080168 -0.04424215108 -0.007458500098
vn -0.5963342786 -0.2988789976 0.7450213432
v 0.002480904805 -0.04024219885 -0.006615649443
vn 0.3204898238 -0.5745012164 0.7531498075
v 0.006660682615 -0.04424222931 -0.009879907593
vn 0.7618564963 -0.2790399194 0.5845608711
v 0.007915929891 -0.04424224049 -0.01437199954
vn 0.9477309585 -0.3149994314 0.05080784112
v -0.001082400093 -0.04024216905 -0.0217145402
vn -0.1072994545 -0.6351163387 -0.7649275064
v 0.003195270197 -0.04024219885 -0.02125217021
vn 0.3123541474 -0.632393837 -0.7088814378
v -0.004089809954 -0.04424215108 -0.01915485971
vn -0.4770392179 -0.1449140906 -0.8668526411
v -0.006144134793 -0.04424213246 -0.01597542502
vn -0.9340060353 -0.2157034576 -0.2847890258
v -0.007124214433 -0.04024212807 -0.01084803045
vn -0.6409321427 -0.6880174279 0.3403497934
v 0.006423139945 -0.04024223238 -0.0184073206
vn 0.5536397099 -0.6539370418 -0.5156059265
v -0.005067780148 -0.04024213925 -0.02009312995
vn -0.6427961588 -0.5308215022 -0.5523056984
v -0.006144185085 -0.05161213502 -0.01597542502
vn -0.901250422 -0.424639672 -0.08619046211
v -0.00408985978 -0.05161214992 -0.01915485971
vn -0.6132372022 -0.162533775 -0.772996068
v -0.001975754974 -0.04424216598 -0.007856205106
vn -0.3002779186 -0.1940999031 0.933894217
v 0.006143465172 -0.04424222186 -0.01202457491
vn 0.9234089851 -0.2432336956 0.2969059944
v -0.005741490051 -0.04424213246 -0.01105251536
vn -0.904406786 -0.2131825387 0.3695965409
v 0.0005256850272 -0.05161217973 -0.007567910012
vn 0.05322700739 -0.7573369741 0.6508514285
v 0.002947149798 -0.04424220324 -0.008258845657
vn 0.442271024 -0.2495472878 0.8614653349
v -0.007124245167 -0.044242125 -0.01084803045
vn -0.9401499629 -0.3155570626 0.1286148876
v 0.004919775296 -0.05161221325 -0.009823820554
vn 0.5408911705 -0.7047389746 0.459107548
v -0.004176570103 -0.0516121462 -0.009079835378
vn -0.5296714306 -0.7018164396 0.4763421416
# mm_gid 0
g mmGroup0
f 1//1 2//2 3//3 
f 4//4 2//2 1//1 
f 4//4 5//5 6//6 
f 1//1 5//5 4//4 
f 6//6 7//7 8//8 
f 5//5 7//7 6//6 
f 3//3 8//8 7//7 
f 2//2 8//8 3//3 
f 1//1 9//9 10//10 
f 3//3 9//9 1//1 
f 11//11 12//12 13//13 
f 14//14 12//12 11//11 
f 14//14 15//15 12//12 
f 16//16 15//15 14//14 
f 16//16 17//17 15//15 
f 18//18 17//17 16//16 
f 18//18 19//19 17//17 
f 20//20 19//19 18//18 
f 20//20 21//21 19//19 
f 22//22 21//21 20//20 
f 22//22 23//23 21//21 
f 24//24 23//23 22//22 
f 24//24 25//25 23//23 
f 26//26 25//25 24//24 
f 26//26 27//27 25//25 
f 28//28 27//27 26//26 
f 28//28 29//29 27//27 
f 30//30 29//29 28//28 
f 30//30 31//31 29//29 
f 32//32 31//31 30//30 
f 32//32 33//33 31//31 
f 34//34 33//33 32//32 
f 34//34 35//35 33//33 
f 36//36 35//35 34//34 
f 36//36 37//37 35//35 
f 38//38 37//37 36//36 
f 38//38 39//39 37//37 
f 40//40 39//39 38//38 
f 40//40 9//9 39//39 
f 10//10 9//9 40//40 
f 13//13 41//41 11//11 
f 42//42 41//41 13//13 
f 42//42 43//43 41//41 
f 44//44 43//43 42//42 
f 44//44 45//45 43//43 
f 46//46 45//45 44//44 
f 46//46 47//47 45//45 
f 48//48 47//47 46//46 
f 48//48 49//49 47//47 
f 50//50 49//49 48//48 
f 50//50 51//51 49//49 
f 52//52 51//51 50//50 
f 52//52 53//53 51//51 
f 54//54 53//53 52//52 
f 54//54 55//55 53//53 
f 56//56 55//55 54//54 
f 56//56 57//57 55//55 
f 58//58 57//57 56//56 
f 58//58 59//59 57//57 
f 60//60 59//59 58//58 
f 60//60 61//61 59//59 
f 62//62 61//61 60//60 
f 62//62 63//63 61//61 
f 64//64 63//63 62//62 
f 64//64 65//65 63//63 
f 66//66 65//65 64//64 
f 66//66 67//67 65//65 
f 68//68 67//67 66//66 
f 68//68 69//69 67//67 
f 70//70 69//69 68//68 
f 70//70 5//5 69//69 
f 7//7 5//5 70//70 
f 71//71 5//5 1//1 
f 72//72 5//5 71//71 
f 73//73 3//3 7//7 
f 74//74 3//3 73//73 
f 75//75 39//39 9//9 
f 37//37 39//39 75//75 
f 76//76 37//37 75//75 
f 35//35 37//37 76//76 
f 33//33 35//35 76//76 
f 77//77 33//33 76//76 
f 77//77 31//31 33//33 
f 78//78 31//31 77//77 
f 78//78 29//29 31//31 
f 78//78 27//27 29//29 
f 79//79 27//27 78//78 
f 79//79 25//25 27//27 
f 80//80 25//25 79//79 
f 80//80 23//23 25//25 
f 80//80 21//21 23//23 
f 81//81 21//21 80//80 
f 81//81 19//19 21//21 
f 81//81 17//17 19//19 
f 82//82 17//17 81//81 
f 82//82 15//15 17//17 
f 83//83 15//15 82//82 
f 83//83 12//12 15//15 
f 13//13 84//84 42//42 
f 13//13 83//83 84//84 
f 12//12 83//83 13//13 
f 44//44 42//42 84//84 
f 85//85 44//44 84//84 
f 46//46 44//44 85//85 
f 48//48 46//46 85//85 
f 86//86 48//48 85//85 
f 50//50 48//48 86//86 
f 87//87 50//50 86//86 
f 52//52 50//50 87//87 
f 54//54 52//52 87//87 
f 88//88 54//54 87//87 
f 56//56 54//54 88//88 
f 58//58 56//56 88//88 
f 89//89 58//58 88//88 
f 60//60 58//58 89//89 
f 62//62 60//60 89//89 
f 90//90 62//62 89//89 
f 64//64 62//62 90//90 
f 66//66 64//64 90//90 
f 91//91 66//66 90//90 
f 68//68 66//66 91//91 
f 92//92 68//68 91//91 
f 70//70 68//68 92//92 
f 7//7 70//70 92//92 
f 74//74 9//9 3//3 
f 75//75 9//9 74//74 
f 92//92 73//73 7//7 
f 93//93 67//67 69//69 
f 65//65 67//67 93//93 
f 94//94 65//65 93//93 
f 63//63 65//65 94//94 
f 61//61 63//63 94//94 
f 95//95 61//61 94//94 
f 95//95 59//59 61//61 
f 96//96 59//59 95//95 
f 96//96 57//57 59//59 
f 97//97 57//57 96//96 
f 97//97 55//55 57//57 
f 97//97 53//53 55//55 
f 98//98 53//53 97//97 
f 98//98 51//51 53//53 
f 98//98 49//49 51//51 
f 99//99 49//49 98//98 
f 99//99 47//47 49//49 
f 100//100 47//47 99//99 
f 100//100 45//45 47//47 
f 100//100 43//43 45//45 
f 101//101 43//43 100//100 
f 101//101 41//41 43//43 
f 11//11 102//102 14//14 
f 11//11 101//101 102//102 
f 41//41 101//101 11//11 
f 16//16 14//14 102//102 
f 103//103 16//16 102//102 
f 18//18 16//16 103//103 
f 20//20 18//18 103//103 
f 104//104 20//20 103//103 
f 22//22 20//20 104//104 
f 105//105 22//22 104//104 
f 24//24 22//22 105//105 
f 26//26 24//24 105//105 
f 106//106 26//26 105//105 
f 28//28 26//26 106//106 
f 30//30 28//28 106//106 
f 107//107 30//30 106//106 
f 32//32 30//30 107//107 
f 34//34 32//32 107//107 
f 108//108 34//34 107//107 
f 36//36 34//34 108//108 
f 38//38 36//36 108//108 
f 109//109 38//38 108//108 
f 40//40 38//38 109//109 
f 110//110 40//40 109//109 
f 10//10 40//40 110//110 
f 1//1 10//10 110//110 
f 72//72 69//69 5//5 
f 93//93 69//69 72//72 
f 110//110 71//71 1//1 
f 106//106 108//108 107//107 
f 106//106 109//109 108//108 
f 106//106 110//110 109//109 
f 100//100 94//94 93//93 
f 110//110 105//105 104//104 
f 106//106 105//105 110//110 
f 100//100 95//95 94//94 
f 96//96 95//95 100//100 
f 100//100 97//97 96//96 
f 98//98 97//97 100//100 
f 100//100 99//99 98//98 
f 93//93 101//101 100//100 
f 102//102 101//101 93//93 
f 103//103 110//110 104//104 
f 103//103 72//72 110//110 
f 93//93 72//72 103//103 
f 102//102 93//93 103//103 
f 72//72 71//71 110//110 
f 88//88 90//90 89//89 
f 88//88 91//91 90//90 
f 88//88 92//92 91//91 
f 82//82 76//76 75//75 
f 92//92 87//87 86//86 
f 88//88 87//87 92//92 
f 82//82 77//77 76//76 
f 78//78 77//77 82//82 
f 82//82 79//79 78//78 
f 80//80 79//79 82//82 
f 82//82 81//81 80//80 
f 75//75 83//83 82//82 
f 84//84 83//83 75//75 
f 85//85 92//92 86//86 
f 85//85 74//74 92//92 
f 75//75 74//74 85//85 
f 84//84 75//75 85//85 
f 74//74 73//73 92//92 
f 111//111 2//2 4//4 
f 8//8 113//113 6//6 
f 115//115 2//2 111//111 
f 8//8 115//115 114//114 
f 2//2 115//115 8//8 
f 111//111 4//4 112//112 
f 118//118 117//117 112//112 
f 118//118 112//112 116//116 
f 8//8 114//114 113//113 
f 116//116 6//6 113//113 
f 4//4 116//116 112//112 
f 6//6 116//116 4//4 
f 117//117 111//111 112//112 
f 114//114 120//120 113//113 
f 120//120 116//116 113//113 
f 120//120 118//118 116//116 
f 111//111 119//119 125//125 
f 117//117 119//119 111//111 
f 117//117 121//121 119//119 
f 118//118 121//121 117//117 
f 115//115 125//125 124//124 
f 111//111 125//125 115//115 
f 114//114 124//124 129//129 
f 115//115 124//124 114//114 
f 120//120 129//129 126//126 
f 114//114 129//129 120//120 
f 118//118 126//126 121//121 
f 120//120 126//126 118//118 
f 130//130 127//127 123//123 
f 130//130 123//123 135//135 
f 135//135 123//123 122//122 
f 135//135 122//122 146//146 
f 146//146 122//122 152//152 
f 126//126 136//136 137//137 
f 129//129 136//136 126//126 
f 141//141 136//136 129//129 
f 125//125 131//131 148//148 
f 119//119 131//131 125//125 
f 119//119 150//150 131//131 
f 144//144 150//150 119//119 
f 124//124 141//141 129//129 
f 124//124 132//132 141//141 
f 148//148 124//124 125//125 
f 132//132 124//124 148//148 
f 146//146 134//134 138//138 
f 146//146 138//138 135//135 
f 135//135 138//138 130//130 
f 130//130 138//138 139//139 
f 145//145 121//121 149//149 
f 144//144 119//119 121//121 
f 149//149 126//126 137//137 
f 149//149 121//121 126//126 
f 141//141 142//142 136//136 
f 141//141 133//133 142//142 
f 141//141 128//128 133//133 
f 149//149 139//139 138//138 
f 149//149 138//138 145//145 
f 145//145 138//138 144//144 
f 144//144 138//138 134//134 
f 132//132 128//128 141//141 
f 132//132 140//140 128//128 
f 148//148 140//140 132//132 
f 148//148 158//158 140//140 
f 131//131 158//158 148//148 
f 131//131 147//147 158//158 
f 150//150 147//147 131//131 
f 150//150 134//134 147//147 
f 144//144 134//134 150//150 
f 137//137 139//139 149//149 
f 137//137 143//143 139//139 
f 136//136 143//143 137//137 
f 136//136 142//142 143//143 
f 154//154 143//143 142//142 
f 154//154 139//139 143//143 
f 144//144 121//121 145//145 
f 146//146 151//151 147//147 
f 146//146 152//152 151//151 
f 130//130 139//139 154//154 
f 146//146 147//147 134//134 
f 155//155 158//158 147//147 
f 155//155 140//140 158//158 
f 153//153 140//140 155//155 
f 153//153 128//128 140//140 
f 157//157 128//128 153//153 
f 157//157 133//133 128//128 
f 157//157 142//142 133//133 
f 154//154 142//142 157//157 
f 154//154 127//127 130//130 
f 154//154 159//159 127//127 
f 157//157 159//159 154//154 
f 157//157 156//156 159//159 
f 153//153 156//156 157//157 
f 153//153 160//160 156//156 
f 155//155 160//160 153//153 
f 155//155 151//151 160//160 
f 147//147 151//151 155//155 
f 122//122 156//156 160//160 
f 159//159 156//156 122//122 
f 122//122 160//160 151//151 
f 122//122 151//151 152//152 
f 122//122 127//127 159//159 
f 123//123 127//127 122//122 
